<?xml version="1.0" encoding="UTF-8" standalone="no"?>
<svg width="1182px" height="540px" viewBox="0 0 1182 540" version="1.1" xmlns="http://www.w3.org/2000/svg" xmlns:xlink="http://www.w3.org/1999/xlink">
    <!-- Generator: Sketch 50.2 (55047) - http://www.bohemiancoding.com/sketch -->
    <title>Rectangle 2</title>
    <desc>Created with Sketch.</desc>
    <defs></defs>
    <g id="Page-1" stroke="none" stroke-width="1" fill="none" fill-rule="evenodd">
        <g id="Desktop-HD" transform="translate(-119.000000, -939.000000)" fill="#FFFFFF">
            <g id="2-part" transform="translate(119.000000, 939.000000)">
                <path d="M145.746268,83.4926483 C247.367356,31.4130827 587.249769,3.58230324 1165.39351,0.000309826229 L1165.39351,0.000313666252 C1174.22989,-0.0544337404 1181.43758,7.06448952 1181.49232,15.9008738 C1181.49489,16.315463 1181.48135,16.7299953 1181.45171,17.1435322 C1169.34148,186.153715 1093.39256,312.6906 953.604943,396.754186 C810.680758,482.703998 498.302397,530.322136 16.4698611,539.6086 L16.4698612,539.608601 C7.63494533,539.778879 0.334793936,532.754801 0.164516659,523.919885 C0.163961958,523.891104 0.16348493,523.862322 0.16308558,523.833539 C-3.19587674,281.734107 45.3318509,134.95381 145.746268,83.4926483 Z" id="Rectangle-2"></path>
            </g>
        </g>
    </g>
</svg>